<svg id="Layer_1" data-name="Layer 1" xmlns="http://www.w3.org/2000/svg" viewBox="0 0 238 55.25"><defs><style>.cls-1{fill:#003d6a;}.cls-2{fill:#b3182b;}</style></defs><title>Artboard 1</title><path class="cls-1" d="M104.29,11.38h1.51V28.24h-1.51Z"/><path class="cls-1" d="M113.31,20.92V19.64h5.4v8.6h-1.18V25.45h0a4,4,0,0,1-3.7,3.07c-3.45,0-5.38-2.67-5.38-8.71s1.93-8.71,5.38-8.71c3.21,0,4.65,2.1,4.84,5h-1.51c0-2-1.11-3.73-3.33-3.73-2.41,0-3.87,2-3.87,7.44s1.46,7.43,3.87,7.43,3.51-2,3.51-6v-.35Z"/><path class="cls-1" d="M124.38,12.66H120V11.38h10.19v1.28h-4.34V28.24h-1.51Z"/><path class="cls-1" d="M140.72,11.38h2.78L148,28.24h-2.17l-1.21-4.63h-5.38L138,28.24h-2.17Zm-1,10.53h4.54l-2.15-8.14H142Z"/><path class="cls-1" d="M149.34,15.58h1.89v1.49h0a3.38,3.38,0,0,1,3.07-1.82,2.48,2.48,0,0,1,2.74,2,3.52,3.52,0,0,1,3-2c3.33,0,3.33,2.53,3.33,4v9h-2V19.5c0-1-.07-2.55-1.7-2.55a2.33,2.33,0,0,0-2.36,2.55v8.74h-2V19.5c0-1-.07-2.55-1.7-2.55a2.33,2.33,0,0,0-2.36,2.55v8.74h-2Z"/><path class="cls-1" d="M167.85,22.15c0,1.93,0,4.86,2.43,4.86,1.89,0,2.15-2,2.15-2.93h2c0,1.35-.8,4.49-4.25,4.49-3.09,0-4.39-2.15-4.39-6.5,0-3.16.61-6.82,4.51-6.82s4.22,3.38,4.22,6.09v.81Zm4.58-1.56V19.9c0-1.41-.45-3.09-2.2-3.09-2.07,0-2.31,2.55-2.31,3.31v.47Z"/><path class="cls-1" d="M176.68,15.58h2v1.89h.05c.57-1.2,1.32-2.22,2.74-2.22a2.08,2.08,0,0,1,.87.14v1.94a5.87,5.87,0,0,0-1.06-.09,2.81,2.81,0,0,0-2.6,3v8h-2Z"/><path class="cls-1" d="M183.79,11.38h2v2.27h-2Zm0,4.2h2V28.24h-2Z"/><path class="cls-1" d="M194.5,19.43c0-1.23-.49-2.62-2-2.62-1.23,0-2.48.61-2.48,5.24,0,1.65,0,5,2.41,5,1.7,0,2.07-1.8,2.07-3.17h2c0,2-1,4.73-4.16,4.73s-4.39-2.15-4.39-6.5c0-3.16.62-6.82,4.51-6.82,3.45,0,4,2.72,4,4.18Z"/><path class="cls-1" d="M198.24,19.41c0-2.88,1.22-4.16,4.25-4.16,3.84,0,3.84,2.32,3.84,3.64V26c0,.51,0,1,.62,1a.72.72,0,0,0,.47-.12v1.42a7.56,7.56,0,0,1-1.16.12c-.75,0-1.7,0-1.79-1.63h-.05a3.59,3.59,0,0,1-3,1.82c-2.36,0-3.45-1.42-3.45-3.69a3.27,3.27,0,0,1,2.38-3.49l2.67-.8c1.44-.45,1.44-.85,1.44-1.91s-.71-1.87-2-1.87a2.16,2.16,0,0,0-2.17,2.48v.12Zm6.11,1.93c-.73.78-2.48.95-3.38,1.49a2,2,0,0,0-1,2c0,1.27.45,2.17,1.79,2.17a2.58,2.58,0,0,0,2.55-2.41Z"/><path class="cls-1" d="M209,26.74h1v1.5c0,.86-.17,1.69-1.09,2v-.58c.39-.24.5-.65.52-1.44H209Z"/><path class="cls-1" d="M215.12,17.74h.94v10.5h-.94Z"/><path class="cls-1" d="M217.79,20.43h.8v1.09h0a2.18,2.18,0,0,1,2-1.26,1.82,1.82,0,0,1,2,2.08v5.9h-.88V22.59c0-1.07-.44-1.6-1.33-1.6a1.77,1.77,0,0,0-1.72,2v5.25h-.89Z"/><path class="cls-1" d="M229,25.65c-.14,1.66-1,2.76-2.49,2.76-1.64,0-2.61-1.14-2.61-4.08,0-2.71,1-4.07,2.69-4.07A2.29,2.29,0,0,1,229,22.75h-.89c-.1-1.22-.58-1.76-1.52-1.76s-1.75.59-1.75,3.35c0,2.94.84,3.34,1.66,3.34s1.47-.66,1.61-2Z"/><path class="cls-1" d="M230.71,26.74h1v1.5h-1Z"/><path class="cls-2" d="M106.13,33.55h-2.34v-.68h5.49v.68h-2.34v8.39h-.81Z"/><path class="cls-2" d="M112.63,32.87h.77v3.26h0A1.61,1.61,0,0,1,115.08,35a1.58,1.58,0,0,1,1.72,1.8v5.1H116V37.06c0-.93-.38-1.38-1.16-1.38a1.52,1.52,0,0,0-1.48,1.72v4.54h-.77Z"/><path class="cls-2" d="M125,39.7c-.11,1.44-.9,2.39-2.17,2.39-1.42,0-2.26-1-2.26-3.53,0-2.34.84-3.52,2.32-3.52s2.18,1,2.18,3.28v.28h-3.69v.32c0,1.94.69,2.54,1.44,2.54s1.29-.57,1.42-1.76ZM124.22,38c0-1.67-.49-2.28-1.43-2.28s-1.41.61-1.44,2.28Z"/><path class="cls-2" d="M137.92,40.82h0a1.67,1.67,0,0,1-1.66,1.27c-1.48,0-2.16-1.19-2.16-3.53s.68-3.52,2.16-3.52a1.51,1.51,0,0,1,1.58,1.17h0V32.87h.77v9.07h-.69Zm-1.55.64c.78,0,1.47-.4,1.47-2.9s-.69-2.88-1.47-2.88-1.47.39-1.47,2.88S135.61,41.46,136.37,41.46Z"/><path class="cls-2" d="M142.54,35.19h.77v1.06h0A1.79,1.79,0,0,1,145,35a.82.82,0,0,1,.26,0v.76a1.55,1.55,0,0,0-.37,0c-.83,0-1.62.61-1.62,1.92v4.22h-.77Z"/><path class="cls-2" d="M148.2,35.19H149L150.52,41h0l1.36-5.85h.81l-2,7.3c-.35,1.32-.76,1.69-1.79,1.69a3.78,3.78,0,0,1-.51,0v-.63l.5,0c.47,0,.78-.19,1-.9l.19-.64Z"/><path class="cls-2" d="M165.83,39.7c-.11,1.44-.9,2.39-2.17,2.39s-2.26-1-2.26-3.53c0-2.34.84-3.52,2.32-3.52s2.18,1,2.18,3.28v.28h-3.69v.32c0,1.94.69,2.54,1.44,2.54s1.29-.57,1.42-1.76ZM165.08,38c0-1.67-.49-2.28-1.43-2.28s-1.41.61-1.44,2.28Z"/><path class="cls-2" d="M169.63,35.19h.76v1.06h0a1.78,1.78,0,0,1,1.7-1.21.84.84,0,0,1,.27,0v.76a1.61,1.61,0,0,0-.37,0c-.84,0-1.63.61-1.63,1.92v4.22h-.76Z"/><path class="cls-2" d="M175.57,37.2A1.88,1.88,0,0,1,177.65,35c1.4,0,1.91.72,1.91,1.79v4c0,.38.12.56.39.56h.22v.56a1.13,1.13,0,0,1-.36.08c-.6,0-1-.14-1-.84V41h0a1.65,1.65,0,0,1-1.74,1.14c-1.19,0-1.72-.73-1.72-1.9a1.79,1.79,0,0,1,1.36-1.87l1.44-.41c.53-.15.64-.28.64-1.07a1,1,0,0,0-1.17-1.16c-.9,0-1.29.54-1.29,1.52Zm3.22.93h0c-.08.23-.51.37-.81.44l-.64.17a1.32,1.32,0,0,0-1.16,1.4c0,.78.41,1.32,1.07,1.32.93,0,1.56-.7,1.56-1.91Z"/><path class="cls-2" d="M184.73,38.59c-1-.37-1.3-.93-1.3-1.61a1.79,1.79,0,0,1,2-1.94,1.64,1.64,0,0,1,1.85,1.88v.19h-.76v-.19c0-.88-.4-1.24-1.1-1.24-.89,0-1.24.47-1.24,1.14,0,.47.16.84.92,1.13l1.1.42a1.72,1.72,0,0,1,1.26,1.72,1.87,1.87,0,0,1-2.08,2c-1.39,0-2.07-.57-2.07-2.09v-.22h.76V40c0,1,.43,1.5,1.3,1.5a1.19,1.19,0,0,0,1.33-1.21A1.2,1.2,0,0,0,185.8,39Z"/><path class="cls-2" d="M195.3,39.7c-.11,1.44-.9,2.39-2.17,2.39-1.43,0-2.27-1-2.27-3.53,0-2.34.84-3.52,2.33-3.52s2.17,1,2.17,3.28v.28h-3.68v.32c0,1.94.68,2.54,1.43,2.54s1.3-.57,1.43-1.76ZM194.55,38c0-1.67-.5-2.28-1.44-2.28s-1.41.61-1.43,2.28Z"/><path class="cls-2" d="M208.17,35.19h.69v6.27c0,1.87-.69,2.82-2.21,2.82-1.31,0-2-.69-2-1.65h.76c0,.63.6,1,1.27,1,.93,0,1.42-.64,1.42-1.84V40.73h0a1.58,1.58,0,0,1-1.58,1.21c-1,0-2.08-.69-2.08-3.38,0-2.33.67-3.52,2.16-3.52a1.61,1.61,0,0,1,1.58,1.19h0Zm-1.51,6.12c.9,0,1.43-.66,1.43-2.83s-.53-2.8-1.43-2.8-1.44.66-1.44,2.8S205.76,41.31,206.66,41.31Z"/><path class="cls-2" d="M212.87,35.19h.76V40c0,1.09.37,1.51,1.17,1.51a1.54,1.54,0,0,0,1.48-1.73V35.19H217v6.75h-.69V41h0a1.89,1.89,0,0,1-1.73,1.09,1.58,1.58,0,0,1-1.73-1.8Z"/><path class="cls-2" d="M220.41,35.19h.81L222.73,41h0l1.36-5.85h.81l-2,7.3c-.36,1.32-.76,1.69-1.79,1.69a3.68,3.68,0,0,1-.51,0v-.63l.5,0c.47,0,.78-.19,1-.9l.19-.64Z"/><path class="cls-2" d="M229.36,38.59A1.67,1.67,0,0,1,228.07,37a1.79,1.79,0,0,1,2-1.94,1.64,1.64,0,0,1,1.85,1.88v.19h-.76v-.19c0-.88-.41-1.24-1.11-1.24-.89,0-1.23.47-1.23,1.14,0,.47.15.84.92,1.13l1.1.42a1.72,1.72,0,0,1,1.26,1.72,1.87,1.87,0,0,1-2.09,2c-1.38,0-2.07-.57-2.07-2.09v-.22h.76V40c0,1,.44,1.5,1.3,1.5a1.19,1.19,0,0,0,1.34-1.21,1.21,1.21,0,0,0-.92-1.24Z"/><path class="cls-2" d="M87.61,38.87c0,5.18-17.76,9.38-39.68,9.38S8.26,44.05,8.26,38.87,26,42.43,47.93,42.43,87.61,33.69,87.61,38.87Z"/><path class="cls-1" d="M35.44,37.45c-.23.62-.88.94-1.95.94a7,7,0,0,1-1-.08c-2-.32-3.25-.94-3.59-1.84A1.23,1.23,0,0,1,28.8,36a2.22,2.22,0,0,1,.86-1.58q-.14-5.62-.67-22.94a2.45,2.45,0,0,0-.26-1.15,2.63,2.63,0,0,1-.3-.95,2,2,0,0,1,.86-1.43A2.48,2.48,0,0,1,31,7.38,6.34,6.34,0,0,1,33.6,8q1.65.8,1.65,1.92a10.32,10.32,0,0,1-.79,2l.38,22.72a2.76,2.76,0,0,0,.34,1.15,2.77,2.77,0,0,1,.33,1.1A1.93,1.93,0,0,1,35.44,37.45Z"/><path class="cls-1" d="M55.8,26.46a2.17,2.17,0,0,1-1.76.71c-.7,0-1.39,0-2.07,0a26.42,26.42,0,0,1-1.83,7.09c-1,2.2-2,3.52-3,4a1.43,1.43,0,0,1-.6.12,5.52,5.52,0,0,1-3.41-1.69,14.57,14.57,0,0,1-3.45-4.76,18,18,0,0,1-1.54-7.43,35,35,0,0,1,1.84-11.58c1.42-4,3.36-6,5.81-6q2.73,0,4.46,3.45A20.53,20.53,0,0,1,52.05,17a2.58,2.58,0,0,1,.6,1.65,2,2,0,0,1-.6,1.52,2.06,2.06,0,0,1-1.5.58,5.48,5.48,0,0,1-2.16-.5,3.59,3.59,0,0,1-1.52-1.07,1.34,1.34,0,0,1-.22-.71A9.69,9.69,0,0,0,47,17q-.53-4.35-1.2-4.35c-.4,0-.91,1.38-1.54,4.13a34.13,34.13,0,0,0-1,7.65A21.8,21.8,0,0,0,44,29.78c.51,2,1,3,1.33,3s.75-.54,1.2-1.61a13,13,0,0,0,.9-3.26,5.65,5.65,0,0,1-1.8-1.43,3.27,3.27,0,0,1-1-2.06,1.29,1.29,0,0,1,.52-1,2.9,2.9,0,0,1,1.76-.47c2.23,0,3.45-.09,3.68-.11l1.18-.55A2.83,2.83,0,0,1,52.84,22,3.32,3.32,0,0,1,55.11,23a3.08,3.08,0,0,1,1.1,2.21A2,2,0,0,1,55.8,26.46Z"/><path class="cls-1" d="M71.32,11.92a1.78,1.78,0,0,1-1.76.79,10.26,10.26,0,0,0-2.06.11c-.93.4-2,.85-3.23,1.35q-.1,2.85-.11,6.27c0,4.62.14,8.48.41,13.33a3.52,3.52,0,0,0,.4,1.37,3.49,3.49,0,0,1,.39,1.22,1.35,1.35,0,0,1-.34.9,2.86,2.86,0,0,1-2.47,1.13,5.27,5.27,0,0,1-2.72-.77,2.77,2.77,0,0,1-1.48-1.82c-.08-.38.12-.8.58-1.28a2,2,0,0,0,.69-1.35c-.17-5-.26-8.45-.26-12.17,0-2.25,0-4.05.11-5.4,0,0-.37.12-1,.37a3.11,3.11,0,0,1-1.08.27,1.62,1.62,0,0,1-1.09-.42,16.9,16.9,0,0,1-1.5-1.35,2.11,2.11,0,0,1-.6-1.42,2.7,2.7,0,0,1,.07-.6c.08-.35,1.9-1.06,5.48-2.14a60.36,60.36,0,0,0,6.22-2.06,2.63,2.63,0,0,0,.92-.68A1.86,1.86,0,0,1,68,7a3.38,3.38,0,0,1,2.17,1.09,3.71,3.71,0,0,1,1.5,2.74A2.35,2.35,0,0,1,71.32,11.92Z"/></svg>