<svg xmlns="http://www.w3.org/2000/svg" viewBox="0 0 108 72"><defs><style>.cls-1{fill:#003d6a;}.cls-2{fill:#b3182b;}</style></defs><title>Artboard 1 copy</title><g id="Layer_2" data-name="Layer 2"><path class="cls-1" d="M14.92,44h.93v10.4h-.93Z"/><path class="cls-1" d="M20.48,49.84v-.78h3.33v5.3h-.73V52.64h0a2.44,2.44,0,0,1-2.29,1.89c-2.12,0-3.32-1.64-3.32-5.37s1.2-5.37,3.32-5.37,2.87,1.29,3,3.08h-.93a2.05,2.05,0,0,0-2.05-2.3c-1.48,0-2.39,1.23-2.39,4.59s.91,4.58,2.39,4.58,2.17-1.25,2.17-3.68v-.22Z"/><path class="cls-1" d="M27.31,44.75H24.63V44h6.29v.79H28.24v9.61h-.93Z"/><path class="cls-1" d="M37.39,44H39.1l2.8,10.4H40.56l-.74-2.86H36.5l-.77,2.86H34.39Zm-.63,6.49h2.8l-1.33-5h0Z"/><path class="cls-1" d="M42.7,46.55h1.17v.92h0a2.08,2.08,0,0,1,1.89-1.12,1.54,1.54,0,0,1,1.69,1.24,2.16,2.16,0,0,1,1.85-1.24c2.05,0,2.05,1.56,2.05,2.47v5.54H50.16V49c0-.6,0-1.57-1-1.57A1.44,1.44,0,0,0,47.65,49v5.39H46.43V49c0-.6,0-1.57-1-1.57A1.43,1.43,0,0,0,43.93,49v5.39H42.7Z"/><path class="cls-1" d="M54.12,50.6c0,1.19,0,3,1.5,3,1.17,0,1.33-1.22,1.33-1.81h1.22a2.65,2.65,0,0,1-2.62,2.77c-1.91,0-2.71-1.33-2.71-4,0-2,.38-4.21,2.78-4.21s2.61,2.08,2.61,3.76v.49Zm2.83-1v-.42c0-.88-.28-1.91-1.36-1.91-1.28,0-1.42,1.57-1.42,2v.29Z"/><path class="cls-1" d="M59.57,46.55h1.22v1.17h0c.35-.74.82-1.37,1.69-1.37a1.22,1.22,0,0,1,.54.09v1.19a3.74,3.74,0,0,0-.66-.06,1.74,1.74,0,0,0-1.6,1.85v4.94H59.57Z"/><path class="cls-1" d="M64,44h1.22v1.4H64Zm0,2.59h1.22v7.81H64Z"/><path class="cls-1" d="M70.56,48.93c0-.76-.3-1.62-1.23-1.62-.76,0-1.53.38-1.53,3.23,0,1,0,3.06,1.48,3.06,1,0,1.28-1.11,1.28-2h1.23a2.62,2.62,0,0,1-2.57,2.91c-1.9,0-2.7-1.33-2.7-4,0-2,.37-4.21,2.78-4.21a2.35,2.35,0,0,1,2.49,2.58Z"/><path class="cls-1" d="M72.87,48.91c0-1.77.75-2.56,2.62-2.56,2.37,0,2.37,1.43,2.37,2.24v4.35c0,.32,0,.63.38.63a.47.47,0,0,0,.29-.07v.87a4,4,0,0,1-.72.07c-.46,0-1,0-1.1-1h0a2.2,2.2,0,0,1-1.88,1.12c-1.45,0-2.12-.87-2.12-2.27a2,2,0,0,1,1.47-2.16l1.64-.49c.89-.28.89-.52.89-1.18s-.44-1.15-1.25-1.15a1.33,1.33,0,0,0-1.34,1.53v.07Zm3.77,1.2c-.46.48-1.53.58-2.09.91A1.26,1.26,0,0,0,74,52.26c0,.79.27,1.34,1.1,1.34a1.59,1.59,0,0,0,1.58-1.49Z"/><path class="cls-1" d="M79.5,53.43h.62v.93c0,.53-.11,1-.67,1.25v-.37c.23-.14.3-.39.31-.88H79.5Z"/><path class="cls-1" d="M83.28,47.88h.58v6.48h-.58Z"/><path class="cls-1" d="M84.93,49.54h.49v.67h0a1.35,1.35,0,0,1,1.23-.78,1.13,1.13,0,0,1,1.23,1.29v3.64h-.54V50.88c0-.67-.27-1-.83-1a1.09,1.09,0,0,0-1.06,1.23v3.24h-.54Z"/><path class="cls-1" d="M91.84,52.76c-.08,1-.64,1.7-1.53,1.7s-1.61-.7-1.61-2.52c0-1.66.6-2.51,1.66-2.51A1.42,1.42,0,0,1,91.84,51H91.3c-.06-.76-.36-1.09-.94-1.09s-1.08.36-1.08,2.06.51,2.06,1,2.06.91-.41,1-1.25Z"/><path class="cls-1" d="M92.89,53.43h.62v.93h-.62Z"/><path class="cls-2" d="M15,57.63H13.54v-.42h3.39v.42H15.49v5.18H15Z"/><path class="cls-2" d="M19,57.21h.47v2h0a1.08,1.08,0,0,1,2.08.43v3.15H21.1v-3c0-.57-.23-.86-.71-.86A1,1,0,0,0,19.47,60v2.8H19Z"/><path class="cls-2" d="M26.61,61.43c-.07.89-.56,1.47-1.34,1.47s-1.4-.61-1.4-2.18.52-2.17,1.44-2.17,1.34.64,1.34,2v.18H24.38v.19c0,1.2.42,1.57.88,1.57s.8-.35.88-1.08Zm-.46-1.08c0-1-.31-1.41-.89-1.41s-.87.38-.88,1.41Z"/><path class="cls-2" d="M34.6,62.12h0a1,1,0,0,1-1,.78c-.92,0-1.33-.73-1.33-2.18s.41-2.17,1.33-2.17a.92.92,0,0,1,1,.72h0V57.21H35v5.6H34.6Zm-1,.39c.48,0,.91-.24.91-1.79s-.43-1.78-.91-1.78-.91.25-.91,1.78S33.17,62.51,33.64,62.51Z"/><path class="cls-2" d="M37.45,58.65h.47v.65h0A1.1,1.1,0,0,1,39,58.55l.16,0V59l-.23,0c-.51,0-1,.38-1,1.19v2.6h-.47Z"/><path class="cls-2" d="M40.93,58.65h.51l.93,3.6h0l.84-3.6h.51l-1.22,4.5c-.22.81-.47,1-1.11,1l-.31,0v-.39l.31,0c.29,0,.48-.12.62-.56l.11-.39Z"/><path class="cls-2" d="M51.81,61.43c-.07.89-.55,1.47-1.34,1.47s-1.39-.61-1.39-2.18.51-2.17,1.43-2.17,1.34.64,1.34,2v.18H49.58v.19c0,1.2.42,1.57.89,1.57s.8-.35.87-1.08Zm-.46-1.08c0-1-.3-1.41-.88-1.41s-.88.38-.89,1.41Z"/><path class="cls-2" d="M54.16,58.65h.47v.65h0a1.1,1.1,0,0,1,1-.75l.17,0V59l-.23,0c-.52,0-1,.38-1,1.19v2.6h-.47Z"/><path class="cls-2" d="M57.82,59.88a1.16,1.16,0,0,1,1.28-1.33c.86,0,1.18.45,1.18,1.11v2.46c0,.23.08.34.24.34h.14v.35a.74.74,0,0,1-.22,0c-.37,0-.61-.09-.61-.52V62.2h0a1,1,0,0,1-1.08.7c-.73,0-1.06-.45-1.06-1.17a1.11,1.11,0,0,1,.84-1.16l.89-.25c.33-.09.4-.17.4-.66a.64.64,0,0,0-.72-.72c-.56,0-.8.34-.8.94Zm2,.58h0c0,.14-.31.22-.5.27l-.39.1a.82.82,0,0,0-.72.87c0,.48.26.81.66.81.58,0,1-.43,1-1.18Z"/><path class="cls-2" d="M63.47,60.74c-.59-.23-.8-.57-.8-1a1.1,1.1,0,0,1,1.24-1.2,1,1,0,0,1,1.14,1.16v.12h-.47v-.12c0-.54-.25-.77-.68-.77s-.76.29-.76.71.09.52.56.7l.68.26a1.06,1.06,0,0,1,.78,1,1.15,1.15,0,0,1-1.28,1.24c-.86,0-1.28-.35-1.28-1.29v-.13h.47v.11c0,.61.26.92.8.92a.73.73,0,0,0,.82-.74.75.75,0,0,0-.56-.77Z"/><path class="cls-2" d="M70,61.43c-.07.89-.56,1.47-1.34,1.47s-1.4-.61-1.4-2.18.52-2.17,1.44-2.17,1.34.64,1.34,2v.18H67.75v.19c0,1.2.43,1.57.89,1.57s.8-.35.88-1.08Zm-.46-1.08c0-1-.31-1.41-.89-1.41s-.87.38-.89,1.41Z"/><path class="cls-2" d="M77.93,58.65h.42v3.86c0,1.15-.42,1.74-1.36,1.74s-1.24-.42-1.24-1h.47a.7.7,0,0,0,.78.63c.57,0,.88-.4.88-1.14v-.66h0a1,1,0,0,1-1,.75c-.64,0-1.28-.42-1.28-2.09,0-1.43.41-2.17,1.33-2.17a1,1,0,0,1,1,.74h0ZM77,62.42c.56,0,.89-.41.89-1.74s-.33-1.74-.89-1.74-.88.41-.88,1.74S76.44,62.42,77,62.42Z"/><path class="cls-2" d="M80.83,58.65h.47v2.93c0,.67.22.93.72.93a1,1,0,0,0,.91-1.07V58.65h.47v4.16H83v-.58h0a1.17,1.17,0,0,1-1.07.67,1,1,0,0,1-1.06-1.11Z"/><path class="cls-2" d="M85.47,58.65H86l.94,3.6h0l.84-3.6h.5l-1.21,4.5c-.22.81-.47,1-1.11,1l-.31,0v-.39l.31,0c.29,0,.48-.12.62-.56l.11-.39Z"/><path class="cls-2" d="M91,60.74c-.59-.23-.8-.57-.8-1a1.1,1.1,0,0,1,1.24-1.2,1,1,0,0,1,1.14,1.16v.12h-.47v-.12c0-.54-.25-.77-.68-.77s-.76.29-.76.71.09.52.56.7l.69.26a1.06,1.06,0,0,1,.77,1,1.15,1.15,0,0,1-1.28,1.24c-.86,0-1.28-.35-1.28-1.29v-.13h.47v.11c0,.61.27.92.8.92a.73.73,0,0,0,.82-.74.75.75,0,0,0-.56-.77Z"/><path class="cls-2" d="M79.57,25.73c0,3.33-11.45,6-25.57,6s-25.57-2.71-25.57-6S39.88,28,54,28,79.57,22.39,79.57,25.73Z"/><path class="cls-1" d="M46,24.81q-.23.6-1.26.6a4.84,4.84,0,0,1-.63,0c-1.32-.21-2.09-.61-2.32-1.19a1,1,0,0,1-.07-.34,1.44,1.44,0,0,1,.56-1Q42.13,19.2,41.79,8a1.5,1.5,0,0,0-.17-.74,1.65,1.65,0,0,1-.19-.61A1.32,1.32,0,0,1,42,5.77a1.61,1.61,0,0,1,1.08-.34,4.1,4.1,0,0,1,1.69.41c.71.34,1.07.75,1.07,1.24a7,7,0,0,1-.51,1.3L45.56,23a1.71,1.71,0,0,0,.22.74,1.85,1.85,0,0,1,.22.71A1.33,1.33,0,0,1,46,24.81Z"/><path class="cls-1" d="M59.07,17.73a1.44,1.44,0,0,1-1.14.46c-.45,0-.89,0-1.33,0a17.1,17.1,0,0,1-1.18,4.57,4.59,4.59,0,0,1-2,2.56.92.92,0,0,1-.38.07,3.54,3.54,0,0,1-2.2-1.08,9.32,9.32,0,0,1-2.23-3.07,11.64,11.64,0,0,1-1-4.79A22.4,22.4,0,0,1,48.85,9c.92-2.58,2.16-3.88,3.74-3.89q1.77,0,2.88,2.22a13.32,13.32,0,0,1,1.18,4.3A1.66,1.66,0,0,1,57,12.7a1.29,1.29,0,0,1-.39,1,1.34,1.34,0,0,1-1,.38,3.38,3.38,0,0,1-1.38-.33,2.24,2.24,0,0,1-1-.69.77.77,0,0,1-.15-.46,5.06,5.06,0,0,0,.2-.94c-.23-1.87-.49-2.8-.78-2.8s-.59.89-1,2.66A22.08,22.08,0,0,0,51,16.43a13.93,13.93,0,0,0,.49,3.44c.33,1.28.62,1.92.86,1.92s.49-.35.78-1a8.43,8.43,0,0,0,.58-2.1,3.5,3.5,0,0,1-1.16-.92,2.08,2.08,0,0,1-.66-1.33.83.83,0,0,1,.34-.66,1.85,1.85,0,0,1,1.14-.3c1.43,0,2.22-.06,2.36-.08l.77-.35a1.73,1.73,0,0,1,.71-.18,2.12,2.12,0,0,1,1.46.68,1.93,1.93,0,0,1,.71,1.42A1.28,1.28,0,0,1,59.07,17.73Z"/><path class="cls-1" d="M69.07,8.36a1.15,1.15,0,0,1-1.13.51,6.25,6.25,0,0,0-1.33.07c-.6.26-1.29.55-2.08.87,0,1.23-.07,2.57-.07,4,0,3,.08,5.47.26,8.59a2.2,2.2,0,0,0,.26.88,2.45,2.45,0,0,1,.25.79.88.88,0,0,1-.22.58,1.84,1.84,0,0,1-1.59.72,3.33,3.33,0,0,1-1.75-.49,1.77,1.77,0,0,1-1-1.17,1,1,0,0,1,.38-.82,1.34,1.34,0,0,0,.44-.87c-.11-3.21-.17-5.45-.17-7.85,0-1.45,0-2.61.08-3.48l-.68.24a2.11,2.11,0,0,1-.7.17,1.08,1.08,0,0,1-.7-.26c-.52-.44-.84-.73-1-.87A1.37,1.37,0,0,1,58,9.09a2,2,0,0,1,0-.39c.05-.22,1.23-.68,3.53-1.38a37,37,0,0,0,4-1.33,1.48,1.48,0,0,0,.59-.43,1.23,1.23,0,0,1,.72-.39,2.18,2.18,0,0,1,1.4.7,2.41,2.41,0,0,1,1,1.77A1.49,1.49,0,0,1,69.07,8.36Z"/></g></svg>