<?xml version="1.0" encoding="utf-8"?>
<!-- Generator: Adobe Illustrator 22.1.0, SVG Export Plug-In . SVG Version: 6.00 Build 0)  -->
<svg version="1.1" id="Layer_1" xmlns="http://www.w3.org/2000/svg" xmlns:xlink="http://www.w3.org/1999/xlink" x="0px" y="0px"
	 viewBox="0 0 144 144" style="enable-background:new 0 0 144 144;" xml:space="preserve">
<style type="text/css">
	.st0{fill:#E74437;}
</style>
<g>
	<path class="st0" d="M69.4,49.1V79c0,1.9-2.1,3.1-3.7,2.1l-26-14.9L13.9,51.4c-1.6-0.9-1.6-3.4,0-4.3l25.8-14.9l25.8-14.9
		c1.6-0.9,3.7,0.1,3.7,2.1v29.6H69.4z"/>
</g>
<g>
	<path class="st0" d="M20.1,103.9c0-2.5,1.9-4.7,4.2-4.7h66.5c15.9,0,23.9-6.7,23.9-18.5c0-12.1-7.7-18.8-23.9-18.8H47.6
		c-2.3,0-4.2-2-4.2-4.7V43.7c0-2.5,1.9-4.7,4.2-4.7h47.5c28.5,0,42,15.9,42,42.6c0,25.7-12.8,40.8-42.3,40.8H24.1
		c-2.3,0-4.2-2-4.2-4.7v-13.9H20.1z"/>
</g>
</svg>
