<?xml version="1.0" encoding="utf-8"?>
<!-- Generator: Adobe Illustrator 22.1.0, SVG Export Plug-In . SVG Version: 6.00 Build 0)  -->
<svg version="1.1" id="Layer_1" xmlns="http://www.w3.org/2000/svg" xmlns:xlink="http://www.w3.org/1999/xlink" x="0px" y="0px"
	 viewBox="0 0 144 144" style="enable-background:new 0 0 144 144;" xml:space="preserve">
<style type="text/css">
	.st0{fill:none;stroke:#E74437;stroke-width:7;stroke-miterlimit:10;}
</style>
<path class="st0" d="M95.1,39.1H69.2V19.5c0-2-2-3-3.7-2.1L39.8,32.3L13.9,47.1c-1.6,0.9-1.6,3.4,0,4.3l25.8,14.9l26,14.9
	c1.5,1,3.7-0.3,3.7-2.1V62h21.4c16.3,0,23.9,6.7,23.9,18.8c0,11.8-8.1,18.5-23.9,18.5H24.3c-2.3,0-4.3,2.7-4.3,4.7
	c0,0.3,0,13.9,0,13.9c0,2.6,2,4.7,4.2,4.7h70.5c29.5,0,42.3-15.1,42.3-40.8C137,54.9,123.5,39.1,95.1,39.1z"/>
</svg>
