<?xml version="1.0" encoding="utf-8"?>
<!-- Generator: Adobe Illustrator 22.1.0, SVG Export Plug-In . SVG Version: 6.00 Build 0)  -->
<svg version="1.1" id="Layer_1" xmlns="http://www.w3.org/2000/svg" xmlns:xlink="http://www.w3.org/1999/xlink" x="0px" y="0px"
	 viewBox="0 0 144 144" style="enable-background:new 0 0 144 144;" xml:space="preserve">
<style type="text/css">
	.st0{fill:#E74437;}
	.st1{fill:#FFFFFF;}
</style>
<title>Artboard 1</title>
<circle class="st0" cx="72.1" cy="72" r="69"/>
<g>
	<path class="st1" d="M70.5,53.4v23.7c0,1.5-1.7,2.5-2.9,1.7L47,67L26.5,55.2c-1.3-0.7-1.3-2.7,0-3.4L47,40l20.5-11.8
		c1.3-0.7,2.9,0.1,2.9,1.7V53.4z"/>
</g>
<g>
	<path class="st1" d="M31.4,96.9c0-2,1.5-3.7,3.3-3.7h52.8c12.6,0,19-5.3,19-14.7c0-9.6-6.1-14.9-19-14.9H53.2
		c-1.8,0-3.3-1.6-3.3-3.7V49.1c0-2,1.5-3.7,3.3-3.7h37.7c22.6,0,33.3,12.6,33.3,33.8c0,20.4-10.2,32.4-33.6,32.4h-56
		c-1.8,0-3.3-1.6-3.3-3.7V96.9z"/>
</g>
</svg>
