<?xml version="1.0" encoding="utf-8"?>
<!-- Generator: Adobe Illustrator 22.1.0, SVG Export Plug-In . SVG Version: 6.00 Build 0)  -->
<svg version="1.1" id="Layer_1" xmlns="http://www.w3.org/2000/svg" xmlns:xlink="http://www.w3.org/1999/xlink" x="0px" y="0px"
	 viewBox="0 0 94.8 55.2" style="enable-background:new 0 0 94.8 55.2;" xml:space="preserve">
<style type="text/css">
	.st0{fill:#B3182B;}
	.st1{fill:#003D6A;}
</style>
<path class="st0" d="M86.6,38.9c0,5.2-17.8,9.4-39.7,9.4S7.3,44,7.3,38.9s17.7,3.6,39.7,3.6S86.6,33.7,86.6,38.9z"/>
<path class="st1" d="M34.4,37.5c-0.2,0.6-0.9,0.9-2,0.9c-0.3,0-0.7,0-1-0.1c-2-0.3-3.2-0.9-3.6-1.8c-0.1-0.1-0.1-0.3-0.1-0.5
	c0.1-0.6,0.4-1.2,0.9-1.6C28.6,30.7,28.3,23,28,11.5c0-0.4-0.1-0.8-0.3-1.1c-0.2-0.3-0.3-0.6-0.3-0.9c0.1-0.6,0.4-1.1,0.9-1.4
	c0.5-0.4,1.1-0.6,1.7-0.6c0.9,0,1.8,0.2,2.6,0.6c1.1,0.5,1.7,1.2,1.7,1.9c-0.2,0.7-0.5,1.4-0.8,2l0.4,22.7c0,0.4,0.1,0.8,0.3,1.2
	c0.2,0.3,0.3,0.7,0.3,1.1C34.5,37.1,34.5,37.3,34.4,37.5z"/>
<path class="st1" d="M54.8,26.5c-0.4,0.5-1.1,0.8-1.8,0.7c-0.7,0-1.4,0-2.1,0c-0.3,2.4-0.9,4.8-1.8,7.1c-1,2.2-2,3.5-3,4
	c-0.2,0.1-0.4,0.1-0.6,0.1c-1.3-0.1-2.5-0.7-3.4-1.7c-1.5-1.3-2.6-3-3.5-4.8c-1-2.3-1.6-4.9-1.5-7.4c0-3.9,0.6-7.9,1.8-11.6
	c1.4-4,3.4-6,5.8-6c1.8,0,3.3,1.2,4.5,3.4c1,2.1,1.6,4.3,1.8,6.6c0.4,0.5,0.6,1,0.6,1.6c0,0.6-0.2,1.1-0.6,1.5
	c-0.4,0.4-0.9,0.6-1.5,0.6c-0.7,0-1.5-0.2-2.2-0.5c-0.6-0.2-1.1-0.6-1.5-1.1c-0.1-0.2-0.2-0.5-0.2-0.7c0.2-0.5,0.3-1,0.4-1.5
	c-0.4-2.9-0.8-4.4-1.2-4.4c-0.4,0-0.9,1.4-1.5,4.1c-0.6,2.5-1,5.1-1,7.6c0,1.8,0.3,3.6,0.7,5.4c0.5,2,1,3,1.3,3s0.8-0.5,1.2-1.6
	c0.4-1,0.7-2.1,0.9-3.3c-0.7-0.3-1.3-0.8-1.8-1.4c-0.6-0.5-0.9-1.3-1-2.1c0-0.4,0.2-0.8,0.5-1c0.5-0.3,1.1-0.5,1.8-0.5
	c2.2,0,3.5-0.1,3.7-0.1l1.2-0.5c0.3-0.2,0.7-0.3,1.1-0.3c0.9,0,1.7,0.4,2.3,1c0.7,0.6,1.1,1.4,1.1,2.2
	C55.2,25.7,55.1,26.1,54.8,26.5z"/>
<path class="st1" d="M70.3,11.9c-0.4,0.6-1.1,0.9-1.8,0.8c-0.7,0-1.4,0-2.1,0.1c-0.9,0.4-2,0.9-3.2,1.4c-0.1,1.9-0.1,4-0.1,6.3
	c0,4.6,0.1,8.5,0.4,13.3c0,0.5,0.2,0.9,0.4,1.4c0.2,0.4,0.3,0.8,0.4,1.2c0,0.3-0.1,0.7-0.3,0.9c-0.6,0.8-1.5,1.2-2.5,1.1
	c-1,0-1.9-0.3-2.7-0.8c-0.7-0.4-1.3-1-1.5-1.8c-0.1-0.4,0.1-0.8,0.6-1.3c0.4-0.3,0.6-0.8,0.7-1.3c-0.2-5-0.3-8.5-0.3-12.2
	c0-2.2,0-4.1,0.1-5.4c0,0-0.4,0.1-1,0.4c-0.3,0.2-0.7,0.2-1.1,0.3c-0.4,0-0.8-0.1-1.1-0.4c-0.5-0.4-1-0.9-1.5-1.4
	c-0.4-0.4-0.6-0.9-0.6-1.4c0-0.2,0-0.4,0.1-0.6c0.1-0.4,1.9-1.1,5.5-2.1C60.9,9.7,62.9,9,65,8.3c0.4-0.2,0.7-0.4,0.9-0.7
	C66.2,7.3,66.6,7.1,67,7c0.8,0.1,1.6,0.5,2.2,1.1c0.9,0.6,1.4,1.7,1.5,2.7C70.6,11.2,70.5,11.6,70.3,11.9z"/>
</svg>
